<svg id="Layer_1" data-name="Layer 1" xmlns="http://www.w3.org/2000/svg" viewBox="0 0 1000 1000"><defs><style>.cls-1{fill:#e04f4f;}</style></defs><title>Artboard 1</title><path class="cls-1" d="M786.9,800.1a27.85,27.85,0,0,1-19.8-8.3l-524-530.1a27.86,27.86,0,1,1,39-39.8l.6.6,524,530.1a27.9,27.9,0,0,1-19.8,47.5Z"/><path class="cls-1" d="M209.6,799.7a27.86,27.86,0,0,1-19.7-47.5L478.7,460.7a27.86,27.86,0,0,1,39.6,39.2L229.4,791.5A27.75,27.75,0,0,1,209.6,799.7Z"/><path class="cls-1" d="M787.2,800.4H209.6a27.86,27.86,0,0,1-1.1-55.7H787.2a27.86,27.86,0,0,1,0,55.7Z"/><path class="cls-1" d="M672.1,448h-1.5A144.2,144.2,0,0,1,672,159.6h1.5A144.2,144.2,0,1,1,672.1,448ZM672,215.3a88.54,88.54,0,0,0-88.5,87.6h0A88.5,88.5,0,1,0,673,215.3ZM555.7,302.6Z"/></svg>